<svg xmlns="http://www.w3.org/2000/svg" version="1.1" xmlns:xlink="http://www.w3.org/1999/xlink" width="160" height="160"><svg xmlns="http://www.w3.org/2000/svg" xmlns:xlink="http://www.w3.org/1999/xlink" width="160" zoomAndPan="magnify" viewBox="0 0 120 119.999999" height="160" preserveAspectRatio="xMidYMid meet" version="1.0"><defs><g></g><clipPath id="SvgjsClipPath1011"><path d="M 0 0.480469 L 75 0.480469 L 75 68 L 0 68 Z M 0 0.480469 " clip-rule="nonzero"></path></clipPath><clipPath id="SvgjsClipPath1010"><rect x="0" width="75" y="0" height="68"></rect></clipPath><clipPath id="SvgjsClipPath1009"><path d="M 70 17 L 94 17 L 94 72.238281 L 70 72.238281 Z M 70 17 " clip-rule="nonzero"></path></clipPath><clipPath id="SvgjsClipPath1008"><rect x="0" width="24" y="0" height="56"></rect></clipPath><clipPath id="SvgjsClipPath1007"><path d="M 71.804688 8.746094 L 96.617188 8.746094 L 96.617188 33.5625 L 71.804688 33.5625 Z M 71.804688 8.746094 " clip-rule="nonzero"></path></clipPath><clipPath id="SvgjsClipPath1006"><rect x="0" width="97" y="0" height="73"></rect></clipPath></defs><rect x="-12" width="144" fill="#ffffff" y="-12" height="143.999998" fill-opacity="1"></rect><rect x="-12" width="144" fill="#f6f4f0" y="-12" height="143.999998" fill-opacity="1"></rect><g transform="matrix(1, 0, 0, 1, 12, 24)"><g clip-path="url(#58da0062fd)"><g clip-path="url(#f5abcd8a8e)"><g transform="matrix(1, 0, 0, 1, 0, 0.000000000000003553)"><g clip-path="url(#df4b0644bd)"><g fill="#222222" fill-opacity="1"><g transform="translate(0.0000001, 33.183077)"><g><path d="M 15.890625 0.34375 C 14.722656 0.34375 13.65625 0.0859375 12.6875 -0.421875 C 11.726562 -0.941406 10.960938 -1.660156 10.390625 -2.578125 C 9.828125 -3.492188 9.546875 -4.585938 9.546875 -5.859375 L 9.546875 -14.609375 C 9.546875 -14.910156 9.46875 -15.1875 9.3125 -15.4375 C 9.164062 -15.6875 8.96875 -15.882812 8.71875 -16.03125 C 8.46875 -16.1875 8.191406 -16.265625 7.890625 -16.265625 C 7.585938 -16.265625 7.3125 -16.1875 7.0625 -16.03125 C 6.8125 -15.882812 6.613281 -15.6875 6.46875 -15.4375 C 6.320312 -15.1875 6.25 -14.910156 6.25 -14.609375 L 6.25 0 L 1.546875 0 L 1.546875 -14.25 C 1.546875 -15.457031 1.816406 -16.519531 2.359375 -17.4375 C 2.910156 -18.351562 3.664062 -19.078125 4.625 -19.609375 C 5.59375 -20.148438 6.679688 -20.421875 7.890625 -20.421875 C 9.109375 -20.421875 10.195312 -20.148438 11.15625 -19.609375 C 12.113281 -19.078125 12.867188 -18.351562 13.421875 -17.4375 C 13.972656 -16.519531 14.25 -15.457031 14.25 -14.25 L 14.25 -5.515625 C 14.25 -5.179688 14.328125 -4.890625 14.484375 -4.640625 C 14.640625 -4.398438 14.835938 -4.207031 15.078125 -4.0625 C 15.316406 -3.914062 15.578125 -3.84375 15.859375 -3.84375 C 16.171875 -3.84375 16.453125 -3.914062 16.703125 -4.0625 C 16.960938 -4.207031 17.171875 -4.398438 17.328125 -4.640625 C 17.484375 -4.890625 17.5625 -5.179688 17.5625 -5.515625 L 17.5625 -14.25 C 17.5625 -15.457031 17.835938 -16.519531 18.390625 -17.4375 C 18.941406 -18.351562 19.703125 -19.078125 20.671875 -19.609375 C 21.640625 -20.148438 22.710938 -20.421875 23.890625 -20.421875 C 25.117188 -20.421875 26.207031 -20.148438 27.15625 -19.609375 C 28.101562 -19.078125 28.851562 -18.351562 29.40625 -17.4375 C 29.957031 -16.519531 30.234375 -15.457031 30.234375 -14.25 L 30.234375 0 L 25.53125 0 L 25.53125 -14.625 C 25.53125 -14.9375 25.457031 -15.210938 25.3125 -15.453125 C 25.164062 -15.691406 24.96875 -15.882812 24.71875 -16.03125 C 24.476562 -16.1875 24.203125 -16.265625 23.890625 -16.265625 C 23.609375 -16.265625 23.335938 -16.1875 23.078125 -16.03125 C 22.816406 -15.882812 22.609375 -15.691406 22.453125 -15.453125 C 22.304688 -15.210938 22.234375 -14.9375 22.234375 -14.625 L 22.234375 -5.859375 C 22.234375 -4.585938 21.945312 -3.492188 21.375 -2.578125 C 20.800781 -1.660156 20.035156 -0.941406 19.078125 -0.421875 C 18.117188 0.0859375 17.054688 0.34375 15.890625 0.34375 Z M 15.890625 0.34375 "></path></g></g></g><g fill="#222222" fill-opacity="1"><g transform="translate(29.426651, 33.183077)"><g><path d="M 10.21875 0.34375 C 8.550781 0.34375 7.070312 0.0078125 5.78125 -0.65625 C 4.488281 -1.320312 3.476562 -2.273438 2.75 -3.515625 C 2.019531 -4.765625 1.65625 -6.25 1.65625 -7.96875 L 1.65625 -20.078125 L 6.421875 -20.078125 L 6.421875 -7.71875 C 6.421875 -6.96875 6.570312 -6.289062 6.875 -5.6875 C 7.1875 -5.09375 7.628906 -4.617188 8.203125 -4.265625 C 8.773438 -3.910156 9.445312 -3.734375 10.21875 -3.734375 C 11 -3.734375 11.671875 -3.910156 12.234375 -4.265625 C 12.796875 -4.617188 13.226562 -5.09375 13.53125 -5.6875 C 13.84375 -6.289062 14 -6.96875 14 -7.71875 L 14 -20.078125 L 18.765625 -20.078125 L 18.765625 -7.96875 C 18.765625 -6.25 18.394531 -4.765625 17.65625 -3.515625 C 16.914062 -2.273438 15.90625 -1.320312 14.625 -0.65625 C 13.34375 0.0078125 11.875 0.34375 10.21875 0.34375 Z M 13.28125 -21.3125 C 12.6875 -21.3125 12.175781 -21.523438 11.75 -21.953125 C 11.332031 -22.390625 11.125 -22.90625 11.125 -23.5 C 11.125 -24.09375 11.332031 -24.597656 11.75 -25.015625 C 12.175781 -25.429688 12.6875 -25.640625 13.28125 -25.640625 C 13.875 -25.640625 14.382812 -25.429688 14.8125 -25.015625 C 15.25 -24.597656 15.46875 -24.09375 15.46875 -23.5 C 15.46875 -22.90625 15.25 -22.390625 14.8125 -21.953125 C 14.382812 -21.523438 13.875 -21.3125 13.28125 -21.3125 Z M 7.171875 -21.3125 C 6.578125 -21.3125 6.066406 -21.523438 5.640625 -21.953125 C 5.222656 -22.390625 5.015625 -22.90625 5.015625 -23.5 C 5.015625 -24.09375 5.222656 -24.597656 5.640625 -25.015625 C 6.066406 -25.429688 6.578125 -25.640625 7.171875 -25.640625 C 7.765625 -25.640625 8.273438 -25.429688 8.703125 -25.015625 C 9.140625 -24.597656 9.359375 -24.09375 9.359375 -23.5 C 9.359375 -22.90625 9.140625 -22.390625 8.703125 -21.953125 C 8.273438 -21.523438 7.765625 -21.3125 7.171875 -21.3125 Z M 7.171875 -21.3125 "></path></g></g></g><g fill="#222222" fill-opacity="1"><g transform="translate(47.495478, 33.183077)"><g><path d="M 15.890625 0.34375 C 14.679688 0.34375 13.597656 0.0820312 12.640625 -0.4375 C 11.691406 -0.96875 10.9375 -1.703125 10.375 -2.640625 C 9.820312 -3.578125 9.546875 -4.640625 9.546875 -5.828125 L 9.546875 -14.609375 C 9.546875 -14.910156 9.46875 -15.1875 9.3125 -15.4375 C 9.164062 -15.6875 8.96875 -15.882812 8.71875 -16.03125 C 8.46875 -16.1875 8.191406 -16.265625 7.890625 -16.265625 C 7.585938 -16.265625 7.3125 -16.1875 7.0625 -16.03125 C 6.8125 -15.882812 6.613281 -15.6875 6.46875 -15.4375 C 6.320312 -15.1875 6.25 -14.910156 6.25 -14.609375 L 6.25 0 L 1.546875 0 L 1.546875 -14.25 C 1.546875 -15.457031 1.816406 -16.519531 2.359375 -17.4375 C 2.910156 -18.351562 3.664062 -19.078125 4.625 -19.609375 C 5.59375 -20.148438 6.679688 -20.421875 7.890625 -20.421875 C 9.109375 -20.421875 10.195312 -20.148438 11.15625 -19.609375 C 12.113281 -19.078125 12.867188 -18.351562 13.421875 -17.4375 C 13.972656 -16.519531 14.25 -15.457031 14.25 -14.25 L 14.25 -5.484375 C 14.25 -5.171875 14.328125 -4.882812 14.484375 -4.625 C 14.640625 -4.375 14.835938 -4.175781 15.078125 -4.03125 C 15.316406 -3.882812 15.578125 -3.8125 15.859375 -3.8125 C 16.171875 -3.8125 16.453125 -3.882812 16.703125 -4.03125 C 16.960938 -4.175781 17.171875 -4.375 17.328125 -4.625 C 17.484375 -4.882812 17.5625 -5.171875 17.5625 -5.484375 L 17.5625 -20.078125 L 22.234375 -20.078125 L 22.234375 -5.828125 C 22.234375 -4.640625 21.953125 -3.578125 21.390625 -2.640625 C 20.835938 -1.703125 20.082031 -0.96875 19.125 -0.4375 C 18.175781 0.0820312 17.097656 0.34375 15.890625 0.34375 Z M 15.890625 0.34375 "></path></g></g></g><g fill="#222222" fill-opacity="1"><g transform="translate(0.0000001, 54.593346)"><g><path d="M 1.75 0 L 1.75 -20.078125 L 9.125 -20.078125 C 11.25 -20.078125 13.085938 -19.644531 14.640625 -18.78125 C 16.203125 -17.925781 17.414062 -16.742188 18.28125 -15.234375 C 19.15625 -13.722656 19.59375 -11.992188 19.59375 -10.046875 C 19.59375 -8.085938 19.15625 -6.351562 18.28125 -4.84375 C 17.414062 -3.332031 16.203125 -2.144531 14.640625 -1.28125 C 13.085938 -0.425781 11.25 0 9.125 0 Z M 6.5625 -4.015625 L 9.015625 -4.015625 C 10.117188 -4.015625 11.101562 -4.257812 11.96875 -4.75 C 12.84375 -5.238281 13.53125 -5.929688 14.03125 -6.828125 C 14.53125 -7.722656 14.78125 -8.796875 14.78125 -10.046875 C 14.78125 -11.285156 14.53125 -12.351562 14.03125 -13.25 C 13.53125 -14.15625 12.84375 -14.847656 11.96875 -15.328125 C 11.101562 -15.816406 10.117188 -16.0625 9.015625 -16.0625 L 6.5625 -16.0625 Z M 6.5625 -4.015625 "></path></g></g></g><g fill="#222222" fill-opacity="1"><g transform="translate(18.040145, 54.593346)"><g><path d="M 7.71875 0 C 6.476562 0 5.390625 -0.273438 4.453125 -0.828125 C 3.515625 -1.378906 2.785156 -2.113281 2.265625 -3.03125 C 1.742188 -3.957031 1.484375 -4.972656 1.484375 -6.078125 L 1.484375 -20.078125 L 6.3125 -20.078125 L 6.3125 -5.734375 C 6.3125 -5.273438 6.472656 -4.875 6.796875 -4.53125 C 7.117188 -4.1875 7.519531 -4.015625 8 -4.015625 L 13.3125 -4.015625 L 13.3125 0 Z M 7.71875 0 "></path></g></g></g><g fill="#222222" fill-opacity="1"><g transform="translate(29.540939, 54.593346)"><g><path d="M 1.296875 0 L 1.296875 -4.015625 L 4.765625 -4.015625 L 4.765625 -16.0625 L 1.296875 -16.0625 L 1.296875 -20.078125 L 13.03125 -20.078125 L 13.03125 -16.0625 L 9.546875 -16.0625 L 9.546875 -4.015625 L 13.03125 -4.015625 L 13.03125 0 Z M 1.296875 0 "></path></g></g></g><g fill="#222222" fill-opacity="1"><g transform="translate(41.500636, 54.593346)"><g><path d="M 11.5 0 C 9.851562 0 8.367188 -0.25 7.046875 -0.75 C 5.734375 -1.257812 4.617188 -1.972656 3.703125 -2.890625 C 2.785156 -3.816406 2.078125 -4.882812 1.578125 -6.09375 C 1.078125 -7.3125 0.828125 -8.628906 0.828125 -10.046875 C 0.828125 -11.453125 1.078125 -12.765625 1.578125 -13.984375 C 2.078125 -15.203125 2.789062 -16.269531 3.71875 -17.1875 C 4.644531 -18.101562 5.757812 -18.8125 7.0625 -19.3125 C 8.375 -19.820312 9.851562 -20.078125 11.5 -20.078125 L 14.609375 -20.078125 L 14.609375 -16.0625 L 11.625 -16.0625 C 10.71875 -16.0625 9.894531 -15.90625 9.15625 -15.59375 C 8.425781 -15.289062 7.796875 -14.867188 7.265625 -14.328125 C 6.742188 -13.785156 6.34375 -13.148438 6.0625 -12.421875 C 5.789062 -11.691406 5.65625 -10.898438 5.65625 -10.046875 C 5.65625 -9.179688 5.789062 -8.382812 6.0625 -7.65625 C 6.34375 -6.925781 6.742188 -6.289062 7.265625 -5.75 C 7.796875 -5.207031 8.425781 -4.78125 9.15625 -4.46875 C 9.894531 -4.164062 10.71875 -4.015625 11.625 -4.015625 L 14.609375 -4.015625 L 14.609375 0 Z M 11.5 0 "></path></g></g></g><g fill="#222222" fill-opacity="1"><g transform="translate(54.722313, 54.593346)"><g><path d="M 1.75 0 L 1.75 -20.078125 L 6.5625 -20.078125 L 6.5625 -12.1875 L 14.40625 -12.1875 L 14.40625 -20.078125 L 19.21875 -20.078125 L 19.21875 0 L 14.40625 0 L 14.40625 -8.171875 L 6.5625 -8.171875 L 6.5625 0 Z M 1.75 0 "></path></g></g></g></g></g></g><g clip-path="url(#d9b4977b54)"><g transform="matrix(1, 0, 0, 1, 70, 17)"><g clip-path="url(#bdd2facd3b)"><g fill="#222222" fill-opacity="1"><g transform="translate(1.106048, 39.680762)"><g></g></g></g><g fill="#222222" fill-opacity="1"><g transform="translate(4.679432, 39.680762)"><g><path d="M 7.453125 -4.015625 L 7.453125 -9.796875 L 1.578125 -9.796875 L 1.578125 -14.265625 L 7.453125 -14.265625 L 7.453125 -20.03125 L 12.265625 -20.03125 L 12.265625 -14.265625 L 18.140625 -14.265625 L 18.140625 -9.796875 L 12.265625 -9.796875 L 12.265625 -4.015625 Z M 7.453125 -4.015625 "></path></g></g></g></g></g></g><g clip-path="url(#9f665f7da5)"><path fill="#5170ff" d="M 84.152344 8.746094 C 82.949219 18.917969 81.972656 19.894531 71.804688 21.097656 C 71.824219 21.101562 71.847656 21.101562 71.867188 21.105469 C 81.976562 22.304688 82.953125 23.296875 84.152344 33.445312 C 85.355469 23.277344 86.332031 22.300781 96.503906 21.097656 C 86.332031 19.894531 85.355469 18.917969 84.152344 8.746094 Z M 84.152344 8.746094 " fill-opacity="1" fill-rule="nonzero"></path></g></g></g></svg><style>@media (prefers-color-scheme: light) { :root { filter: none; } }
@media (prefers-color-scheme: dark) { :root { filter: none; } }
</style></svg>